<svg width="59" height="54" viewBox="0 0 59 54" fill="none" xmlns="http://www.w3.org/2000/svg">
<path d="M13.2493 40.2417C3.48391 41.3099 3.4721 41.3112 3.24302 39.1093C2.95861 36.3755 2.94439 36.3772 12.8303 35.2959C24.2425 34.0443 24.2115 33.7594 24.4971 36.3698C24.7827 38.9802 24.7825 38.9803 13.2493 40.2417Z" fill="#0A1E00"/>
<g filter="url(#filter0_d_683_28)">
<path fill-rule="evenodd" clip-rule="evenodd" d="M4.61459 20.739C3.48944 21.6849 3.69908 23.8997 4.85254 23.2556C5.12355 23.1043 5.99511 24.7894 6.79003 26.9998C7.67497 29.4625 7.93109 31.1888 7.45115 31.4567C6.64735 31.9056 6.4285 34.4545 7.09202 35.6428C7.30566 36.0254 8.20426 35.2035 9.20542 33.7107C14.2564 26.1785 25.4864 26.7185 29.9469 34.7069L31.4338 37.3699L35.7238 34.9745C39.8989 32.6432 39.9989 32.5279 39.4643 30.6739C39.1624 29.6264 38.9617 27.8579 39.0189 26.7449C39.1168 24.8499 38.9991 24.7097 37.1781 24.5554C36.1083 24.4642 34.1939 24.5454 32.925 24.7343C31.23 24.9874 30.9387 24.883 31.829 24.3408C32.4955 23.9349 34.4498 23.5773 36.1711 23.5459C38.8821 23.4969 39.5596 23.2232 41.2339 21.5009C42.2967 20.4071 44.0008 19.2867 45.0205 19.0109C46.8173 18.5257 46.825 18.453 45.2645 16.6861C44.3781 15.6833 43.2358 14.8387 42.7253 14.8109C41.7469 14.7564 37.2863 16.0292 33.0719 17.5652L30.56 18.4804L28.5899 14.9522C27.5063 13.0115 26.7526 10.9557 26.9154 10.3839C27.3541 8.84231 25.4631 8.95228 24.8614 10.5036C24.5302 11.3586 25.0769 12.9917 26.621 15.7571C27.8532 17.964 28.6041 19.6971 28.2897 19.6089C27.9755 19.5197 26.2104 17.8211 24.3676 15.833L21.0177 12.2187L17.7185 13.5284C14.071 14.9754 6.54013 19.1201 4.61459 20.739ZM14.98 22.6279L17.133 26.0507L13.4538 28.105L9.77467 30.1594L8.84965 27.6596C6.97842 22.6019 7.10484 21.8798 10.1079 20.4756L12.827 19.2051L14.98 22.6279ZM24.286 18.4372C28.5406 22.9644 30.5765 26.8677 29.258 27.9698C28.7107 28.4275 26.3199 28.1376 23.4214 27.2618C18.7044 25.8361 18.4369 25.6428 16.5805 22.3182C15.5181 20.4155 14.7362 18.5517 14.8429 18.1768C14.9496 17.802 16.3367 16.8762 17.9264 16.1197L20.8158 14.7444L24.286 18.4372ZM39.1843 18.9663C39.6609 19.3637 39.8127 19.8219 39.5221 19.9842C39.2308 20.1468 38.6021 19.9549 38.1248 19.5578C37.6482 19.1604 37.4963 18.7022 37.787 18.5399C38.0783 18.3773 38.707 18.5692 39.1843 18.9663ZM41.0278 17.9369C41.5045 18.3343 41.6268 18.8089 41.2999 18.9915C40.9723 19.1744 40.4733 18.9101 40.1908 18.4042C39.9084 17.8984 39.7861 17.4237 39.9188 17.3496C40.0515 17.2755 40.5506 17.5398 41.0278 17.9369ZM41.0207 25.0054C40.4064 26.6772 40.5168 28.1397 41.4209 30.2973C42.5154 32.91 43.0216 33.3979 45.5175 34.2443C49.4238 35.5693 52.6024 34.3495 54.3684 30.8482C57.7333 24.1771 50.9981 17.598 44.5118 21.2198C42.6473 22.2608 41.6204 23.374 41.0207 25.0054ZM48.2102 24.0089C50.3523 24.0586 51.8372 26.7004 51.3198 28.5183C50.8003 30.3439 48.3868 31.2781 46.5186 30.3763C44.3079 29.3103 44.8129 26.682 44.8129 26.682C44.8129 26.682 46.5234 23.9698 48.2102 24.0089Z" fill="#0C2300"/>
</g>
<defs>
<filter id="filter0_d_683_28" x="1.06168" y="9.28223" width="57.0124" height="33.7062" filterUnits="userSpaceOnUse" color-interpolation-filters="sRGB">
<feFlood flood-opacity="0" result="BackgroundImageFix"/>
<feColorMatrix in="SourceAlpha" type="matrix" values="0 0 0 0 0 0 0 0 0 0 0 0 0 0 0 0 0 0 127 0" result="hardAlpha"/>
<feOffset dy="2.80941"/>
<feGaussianBlur stdDeviation="1.4047"/>
<feComposite in2="hardAlpha" operator="out"/>
<feColorMatrix type="matrix" values="0 0 0 0 0 0 0 0 0 0 0 0 0 0 0 0 0 0 0.25 0"/>
<feBlend mode="normal" in2="BackgroundImageFix" result="effect1_dropShadow_683_28"/>
<feBlend mode="normal" in="SourceGraphic" in2="effect1_dropShadow_683_28" result="shape"/>
</filter>
</defs>
</svg>
