<svg width="43" height="44" viewBox="0 0 43 44" fill="none" xmlns="http://www.w3.org/2000/svg">
<g id="Group" filter="url(#filter0_d_96_2830)">
<path id="Vector" d="M6 35L27.7 13.3M27.7 13.3H30.8C32.4443 13.3 34.0213 12.6468 35.1841 11.4841C36.3468 10.3213 37 8.74434 37 7.1V4H33.9C32.2557 4 30.6787 4.65321 29.5159 5.81594C28.3532 6.97866 27.7 8.55566 27.7 10.2V13.3ZM8.2785 20.3215L10.65 17.95L13.0215 20.3215C14.0343 21.3383 14.6029 22.7149 14.6029 24.15C14.6029 25.5851 14.0343 26.9617 13.0215 27.9785L10.65 30.35L8.2785 27.9785C7.26573 26.9617 6.69709 25.5851 6.69709 24.15C6.69709 22.7149 7.26573 21.3383 8.2785 20.3215ZM14.4785 14.1215L16.85 11.75L19.2215 14.1215C20.2343 15.1383 20.8029 16.5149 20.8029 17.95C20.8029 19.3851 20.2343 20.7617 19.2215 21.7785L16.85 24.15L14.4785 21.7785C13.4657 20.7617 12.8971 19.3851 12.8971 17.95C12.8971 16.5149 13.4657 15.1383 14.4785 14.1215ZM20.6785 7.9215L23.05 5.55L25.4215 7.9215C26.4343 8.93826 27.0029 10.3149 27.0029 11.75C27.0029 13.1851 26.4343 14.5617 25.4215 15.5785L23.05 17.95L20.6785 15.5785C19.6657 14.5617 19.0971 13.1851 19.0971 11.75C19.0971 10.3149 19.6657 8.93826 20.6785 7.9215Z" stroke="url(#paint0_linear_96_2830)" stroke-width="3.1039" stroke-linecap="round" stroke-linejoin="round"/>
<path id="Vector_2" d="M20.6784 27.978L23.0499 30.3495L20.6784 32.721C19.6616 33.7338 18.285 34.3024 16.8499 34.3024C15.4148 34.3024 14.0382 33.7338 13.0214 32.721L10.6499 30.3495L13.0214 27.978C14.0382 26.9652 15.4148 26.3966 16.8499 26.3966C18.285 26.3966 19.6616 26.9652 20.6784 27.978ZM26.8784 21.778L29.2499 24.1495L26.8784 26.521C25.8616 27.5338 24.485 28.1024 23.0499 28.1024C21.6148 28.1024 20.2382 27.5338 19.2214 26.521L16.8499 24.1495L19.2214 21.778C20.2382 20.7652 21.6148 20.1966 23.0499 20.1966C24.485 20.1966 25.8616 20.7652 26.8784 21.778ZM33.0784 15.578L35.4499 17.9495L33.0784 20.321C32.0616 21.3338 30.685 21.9024 29.2499 21.9024C27.8148 21.9024 26.4382 21.3338 25.4214 20.321L23.0499 17.9495L25.4214 15.578C26.4382 14.5652 27.8148 13.9966 29.2499 13.9966C30.685 13.9966 32.0616 14.5652 33.0784 15.578Z" stroke="url(#paint1_linear_96_2830)" stroke-width="3.1039" stroke-linecap="round" stroke-linejoin="round"/>
</g>
<defs>
<filter id="filter0_d_96_2830" x="0.0138607" y="0.231174" width="42.9723" height="42.9718" filterUnits="userSpaceOnUse" color-interpolation-filters="sRGB">
<feFlood flood-opacity="0" result="BackgroundImageFix"/>
<feColorMatrix in="SourceAlpha" type="matrix" values="0 0 0 0 0 0 0 0 0 0 0 0 0 0 0 0 0 0 127 0" result="hardAlpha"/>
<feOffset dy="2.21707"/>
<feGaussianBlur stdDeviation="2.21707"/>
<feComposite in2="hardAlpha" operator="out"/>
<feColorMatrix type="matrix" values="0 0 0 0 0 0 0 0 0 0 0 0 0 0 0 0 0 0 0.25 0"/>
<feBlend mode="normal" in2="BackgroundImageFix" result="effect1_dropShadow_96_2830"/>
<feBlend mode="normal" in="SourceGraphic" in2="effect1_dropShadow_96_2830" result="shape"/>
</filter>
<linearGradient id="paint0_linear_96_2830" x1="21.5" y1="4" x2="21.5" y2="35" gradientUnits="userSpaceOnUse">
<stop stop-color="#F7E1AB"/>
<stop offset="1" stop-color="#D0B570"/>
</linearGradient>
<linearGradient id="paint1_linear_96_2830" x1="23.0499" y1="13.9966" x2="23.0499" y2="34.3024" gradientUnits="userSpaceOnUse">
<stop stop-color="#F7E1AB"/>
<stop offset="1" stop-color="#D0B570"/>
</linearGradient>
</defs>
</svg>
