<svg aria-hidden="true" style="position:absolute;width:0;height:0;overflow:hidden" xmlns="http://www.w3.org/2000/svg"><defs><symbol id="Ellipse-outline" viewBox="0 0 32 32"><path stroke-width="3.469" d="M28.949 16.672c0 7.344-5.953 13.297-13.297 13.297S2.355 24.016 2.355 16.672 8.308 3.375 15.652 3.375s13.297 5.953 13.297 13.297z"/></symbol><symbol id="Ellipse-filled" viewBox="0 0 32 32"><path stroke-width="3.469" d="M28.625 15.328c0 7.344-5.953 13.297-13.297 13.297S2.031 22.672 2.031 15.328 7.984 2.031 15.328 2.031s13.297 5.953 13.297 13.297z"/></symbol><symbol id="right-arrow" viewBox="0 0 68 32"><path fill="none" stroke="#d5ba75" style="stroke:var(--color1, #d5ba75)" stroke-linejoin="round" stroke-linecap="round" stroke-width="2.977" d="M52.093 1.488 66.233 16l-14.14 14.14m11.163-14.512H1.489"/></symbol><symbol id="left-arrow" viewBox="0 0 68 32"><path fill="none" stroke="#d5ba75" style="stroke:var(--color1, #d5ba75)" stroke-linejoin="round" stroke-linecap="round" stroke-width="2.977" d="M15.628 1.488 1.488 16l14.14 14.14M4.465 15.628h61.767"/></symbol><symbol id="ear" viewBox="0 0 32 32"><path stroke-linejoin="round" stroke-linecap="round" stroke-width="2.222" d="m4.667 26 15.867-15.867m-.001 0H22.8A4.533 4.533 0 0 0 27.333 5.6V3.333h-2.267a4.533 4.533 0 0 0-4.533 4.533v2.267zm-14.2 5.134 1.734-1.734 1.734 1.734c.715.717 1.156 1.707 1.156 2.799s-.442 2.082-1.156 2.799l-1.734 1.734-1.734-1.734c-.715-.717-1.156-1.707-1.156-2.799s.442-2.082 1.156-2.799zm4.533-4.533L12.6 9l1.734 1.734c.715.717 1.156 1.707 1.156 2.799s-.442 2.082-1.156 2.799L12.6 18.066l-1.734-1.734c-.715-.717-1.156-1.707-1.156-2.799s.442-2.082 1.156-2.799zm4.533-4.533 1.734-1.734 1.734 1.734c.715.717 1.156 1.707 1.156 2.799s-.442 2.082-1.156 2.799l-1.734 1.734-1.734-1.734c-.715-.717-1.156-1.707-1.156-2.799s.442-2.082 1.156-2.799z"/><path stroke-linejoin="round" stroke-linecap="round" stroke-width="2.222" d="m15.4 20.866 1.733 1.733-1.733 1.735c-.717.715-1.707 1.157-2.8 1.157s-2.082-.442-2.8-1.157L8.067 22.6 9.8 20.866c.717-.715 1.707-1.156 2.799-1.156s2.082.442 2.799 1.156zm4.533-4.533 1.733 1.733-1.733 1.735c-.717.715-1.707 1.157-2.8 1.157s-2.082-.442-2.8-1.157L12.6 18.067l1.733-1.734c.717-.715 1.707-1.156 2.799-1.156s2.082.442 2.799 1.156zm4.534-4.534 1.733 1.733-1.733 1.735c-.717.715-1.707 1.157-2.8 1.157s-2.082-.442-2.8-1.157l-1.733-1.734 1.733-1.734c.717-.715 1.707-1.156 2.799-1.156s2.082.442 2.799 1.156z"/></symbol><symbol id="logo" viewBox="0 0 32 32"><path style="fill:var(--color2, #000)" d="m8.541 25.418 5.005 1.775s1.616-.74 2.684-1.136c1.55-.575 2.437-.886 4.062-1.207.982-.194 1.542-.258 2.539-.355 1.326-.129 3.409-.142 3.409-.142s-2.513-.348-4.134-.426c-1.415-.068-3.627-.061-3.627-.061s-1.996.063-3.264.203c-1.259.139-1.95.32-3.191.568-1.367.273-3.482.781-3.482.781z"/><path style="fill:var(--color2, #000)" d="m14.743 27.779 2.803.927s.771-.934 1.366-1.426c.496-.411.811-.598 1.366-.927.464-.275.722-.44 1.222-.642.593-.239 1.581-.428 1.581-.428l1.797-.357s-1.406-.018-2.3.071c-.423.042-.66.066-1.078.143-.804.147-1.15.22-2.085.509-.921.285-1.431.507-2.333.9l-.039.017c-.931.406-2.3 1.212-2.3 1.212z"/><path fill="#0a1e00" style="fill:var(--color3, #0a1e00)" d="M20.189 20.159a1.588 1.588 0 1 1-3.176 0 1.588 1.588 0 0 1 3.176 0z"/><path fill="#fff" style="fill:var(--color4, #fff)" d="M19.584 20.159a.983.983 0 1 1-1.966 0 .983.983 0 0 1 1.966 0z"/><path fill="#0a1e00" style="fill:var(--color3, #0a1e00)" d="M19.13 20.159a.53.53 0 1 1-1.058 0 .53.53 0 0 1 1.058 0z"/><path fill="#0c2300" style="fill:var(--color5, #0c2300)" d="M11.514 14.555c-.299.057-.484.478-.211.478.064 0 .052.392-.028.872-.088.534-.216.871-.33.871-.19 0-.487.438-.487.72 0 .09.245.033.576-.136 1.671-.851 3.644.379 3.644 2.271v.631h1.016c.989 0 1.018-.011 1.109-.399.051-.22.193-.559.316-.754.209-.332.202-.369-.112-.581a4.65 4.65 0 0 0-.786-.397c-.331-.125-.373-.173-.158-.181.161-.006.55.126.864.294.494.264.644.283 1.12.141.302-.09.723-.121.935-.068.373.094.382.081.278-.395-.059-.27-.18-.538-.269-.594-.171-.108-1.105-.328-2.02-.476l-.546-.088v-.836c0-.459.071-.907.158-.993.235-.234-.118-.405-.383-.185-.146.121-.212.471-.212 1.126 0 .523-.039.911-.087.864s-.195-.532-.328-1.077l-.24-.99-.728-.096c-.804-.106-2.582-.117-3.093-.019zm1.681 1.386.043.835h-1.742l.085-.545c.172-1.102.268-1.219.951-1.17l.619.045.044.835zm2.102.181c.312 1.246.286 2.156-.063 2.222-.145.027-.547-.266-.982-.716-.708-.733-.737-.795-.737-1.582 0-.451.047-.866.104-.923s.401-.084.764-.061l.66.043.254 1.016zm-3.747 1.341c-1.344.336-1.952 2.174-1.109 3.354.402.563 1.424.964 2.125.833.668-.125 1.467-.827 1.682-1.479.523-1.58-1.019-3.128-2.698-2.709zm6.383.256c.046.12.027.218-.042.218s-.163-.098-.209-.218c-.046-.12-.027-.218.041-.218s.163.098.209.218zm.437 0c.046.12.02.218-.057.218s-.141-.098-.141-.218.026-.218.057-.218.095.098.141.218zm-5.303 1.037c.643.815.151 1.941-.848 1.941-1.077 0-1.614-1.189-.887-1.961.483-.514 1.321-.504 1.735.021zm-1.445.198c-.16.16-.291.421-.291.581 0 .344.488.871.807.871.124 0 .39-.164.591-.366.272-.271.34-.449.264-.689-.218-.686-.887-.88-1.371-.398zm6.034.041c-.28.24-.407.515-.461.996-.066.582-.024.721.342 1.126.572.633 1.269.733 1.94.279 1.28-.865.727-2.732-.809-2.732-.442 0-.739.097-1.012.331zm1.398.545c.382.225.383.851.107 1.128-.278.277-.808.203-1.054-.149-.292-.415.064-.839.064-.839s.582-.317.883-.14z"/><path fill="#0c2300" style="fill:var(--color5, #0c2300)" d="M14.411 19.57a2.178 2.178 0 1 1-4.356 0 2.178 2.178 0 0 1 4.356 0z"/><path fill="#cfd5da" style="fill:var(--color6, #cfd5da)" d="M13.539 19.57a1.307 1.307 0 1 1-2.614 0 1.307 1.307 0 0 1 2.614 0z"/><path fill="#0c2300" style="fill:var(--color5, #0c2300)" d="M12.959 19.57a.726.726 0 1 1-1.452 0 .726.726 0 0 1 1.452 0z"/><path fill="#d1d1d6" style="fill:var(--color7, #d1d1d6)" d="M19.639 20.151a1.017 1.017 0 1 1-2.034 0 1.017 1.017 0 0 1 2.034 0z"/><path fill="#0c2300" style="fill:var(--color5, #0c2300)" d="M19.13 20.159a.53.53 0 1 1-1.058 0 .53.53 0 0 1 1.058 0z"/><path style="fill:var(--color2, #000)" d="M8.624 10.522c-1.878.488-3.324 1.318-4.668 2.677-1.293 1.307-2.287 3.159-2.656 4.948-.16.774-.234 3.273-.101 3.408.036.037.443-.011.903-.107l.837-.174.049-1.233c.063-1.594.247-2.322.979-3.873 1.192-2.527 3.621-4.387 6.419-4.918 2.679-.508 5.516.316 7.689 2.235.97.856.975.856.171-.005-1.453-1.557-2.927-2.441-4.935-2.96-1.397-.361-3.294-.36-4.688.002zM10.147 7.328c.725-.316 1.199-.33 1.939-.058.699.257 1.491.371 1.935.28.352-.073.859-.38 1.022-.62.201-.296-.661-.784-1.548-.877-.588-.061-1.128.066-2.125.503-.457.2-1.526.808-1.592.905-.015.022.151-.037.369-.132zm2.871-4.04c.069.016.312.142.541.281.534.323.8.648.983 1.2.197.595.47 1.177.69 1.469.28.372.847.691 1.268.713.377.019.383.004.298-.686a2.394 2.394 0 0 0-.305-.903c-.234-.427-.284-.481-.779-.85a8.203 8.203 0 0 0-1.001-.628c-.512-.254-1.519-.622-1.704-.623-.093 0-.091.005.01.029zm-1.332 6.184c.049.033 1.059.066 1.483.048.865-.037 1.704-.232 2.215-.516.597-.332 1.096-.9 1.293-1.471.077-.222-.408-.367-.972-.292-.602.08-1.241.52-1.986 1.364-.428.485-.921.725-1.646.802-.23.024-.404.054-.386.066zm4.455-5.369c.29.213.707.699.821.957.056.126.161.598.233 1.05.197 1.221.579 1.864 1.28 2.147.474.191.485.186.557-.264.138-.865-.173-1.768-.843-2.451-.437-.445-1.434-1.19-1.888-1.409-.289-.14-.318-.145-.16-.029zM13.609 9.88c.142.095 1.307.309 1.969.36.881.069 1.551-.05 2.107-.373.432-.251.94-.742 1.035-1 .041-.111.02-.139-.178-.232-.536-.252-.955-.285-1.465-.117-.352.116-1.067.535-1.431.838-.447.372-1.078.555-1.734.504-.207-.016-.343-.007-.302.02zm5.065-4.759c.525.45.86 1.139.843 1.732-.004.146.027.528.069.847.085.648.336 1.206.685 1.521.229.208.773.436.832.35.021-.03.073-.283.116-.561a2.798 2.798 0 0 0-.282-1.757c-.295-.544-1.023-1.306-1.832-1.919-.698-.528-.933-.645-.43-.214zm-3.185 5.439c.21.155 1.807.597 2.402.664 1.098.124 1.992-.165 2.671-.864.149-.154.273-.311.276-.35.006-.105-.274-.276-.64-.39-.646-.201-1.23-.069-2.222.502-.393.226-.803.437-.91.467a2.671 2.671 0 0 1-1.228.023c-.219-.048-.376-.072-.35-.052zm1.819.938c.059.037.079.032.051-.011-.025-.039-.069-.066-.097-.06s-.007.038.046.071zm3.777-5.106c.089.09.267.344.395.565.261.451.32.846.247 1.674-.064.726.027 1.354.257 1.782.166.308.251.401.563.614l.368.251.134-.264c.291-.572.314-1.512.054-2.156-.253-.625-1.038-1.659-1.764-2.322-.363-.332-.541-.432-.255-.143zm-3.291 5.336c.642.372 2.021.832 2.555.853.724.028 1.365-.167 1.913-.58.428-.323.453-.383.247-.58-.593-.567-1.581-.584-2.726-.047-.296.139-.669.282-.828.318-.301.068-.81.035-1.228-.078l-.243-.066.31.18zm1.963 1.404c1.127.733 1.883 1.036 2.575 1.031.529-.004 1.199-.226 1.665-.553l.229-.16-.168-.2a2.365 2.365 0 0 0-.509-.398c-.474-.275-1.003-.314-1.745-.131l-1.002.245c-.587.142-1.018.066-1.731-.304-.103-.053.207.159.688.472zm3.704-4.802c.302.544.369 1.051.23 1.745-.31 1.548-.181 2.262.507 2.81.36.287.345.294.592-.263a3.11 3.11 0 0 0 .216-1.608c-.051-.393-.139-.636-.433-1.206-.313-.606-1.214-1.904-1.301-1.876-.015.005.07.184.189.398zm-2.717 5.867c.113.111.627.487 1.142.837.757.514 1.005.656 1.293.744.736.222 1.4.2 1.997-.069.542-.243.573-.287.402-.549-.086-.132-.286-.321-.484-.457-.498-.342-1.075-.404-2.07-.224-.42.076-.831.134-.911.13a2.514 2.514 0 0 1-1.184-.399c-.204-.133-.375-.235-.381-.227s.083.105.196.216zm4.671-4.174c.145.245.308.974.288 1.285-.007.101-.096.461-.2.801-.439 1.444-.332 2.273.366 2.847l.162.133.216-.286c.429-.567.602-1.334.472-2.096-.119-.694-.602-1.789-1.133-2.564-.277-.405-.385-.48-.172-.12zm-3.268 5.819c.414.492 1.142 1.16 1.632 1.495.705.483 1.412.642 2.18.491.482-.095.713-.197.747-.331.034-.136-.362-.66-.642-.85-.482-.327-1.124-.444-2.019-.368-.809.069-1.42-.124-1.928-.608-.335-.319-.323-.249.03.17zm1.287 1.814c.692.914 1.622 1.76 2.223 2.02.548.238 1.159.3 1.724.177.268-.059.509-.139.536-.178.074-.109-.282-.706-.554-.927-.386-.315-1.034-.497-1.775-.497-1.03 0-1.246-.058-1.827-.488-.271-.2-.496-.36-.5-.355s.074.117.173.248zm3.714-5.555c.117.284.188.907.141 1.252-.023.173-.155.556-.292.852s-.301.699-.363.896c-.254.8-.125 1.622.322 2.049.165.157.175.158.315.019.411-.408.729-1.105.814-1.783.088-.699-.251-2.04-.791-3.128-.194-.391-.283-.485-.147-.157zm-2.641 7.364c.16.276.374.616.477.756.329.448 1.045 1.199 1.325 1.391.52.356 1.287.526 1.939.432.154-.022.311-.02.348.005.184.122.569 1.694.531 2.166-.02.24.037.298.24.245.286-.075.288-.2.019-1.07-.16-.519-.281-1.101-.29-1.403-.006-.207.004-.225.198-.353.275-.181.783-.843.951-1.238.338-.798.316-1.97-.066-3.439-.159-.614-.246-.733-.154-.212.036.204.029.569-.016.824-.077.434-.105.494-.541 1.165-.508.782-.669 1.134-.743 1.629-.054.359-.19.541-.389.52-.064-.007-.292-.113-.506-.235-.412-.237-.923-.378-1.69-.467a3.168 3.168 0 0 1-.731-.174c-.346-.151-.891-.613-1.023-.866-.055-.105-.115-.187-.135-.183s.095.233.255.509zm4.208-4.91c.119.652.025 1.142-.352 1.833-.591 1.083-.715 1.926-.377 2.561.256.481.336.514.613.246.126-.122.289-.309.361-.415.197-.288.44-1.002.474-1.388.051-.587-.246-2.06-.571-2.833a18.545 18.545 0 0 1-.142-.346c-.099-.247-.1-.179-.005.343z"/><path style="fill:var(--color2, #000)" d="M7.472 25.076 1.13 22.864s4.596-.924 7.581-1.213c2.114-.205 5.103-.205 5.103-.205s3.035.051 4.738.205c1.86.168 4.593.724 4.593.724s2.549.532 4.082.989c1.674.499 4.155 1.641 4.155 1.641s-2.515-.687-4.155-.999c-1.834-.349-2.873-.535-4.738-.642-1.393-.08-2.178-.048-3.572 0a43.862 43.862 0 0 0-3.936.286c-1.344.15-2.096.257-3.426.499-1.609.293-4.082.928-4.082.928z"/></symbol><symbol id="rev-ear" viewBox="0 0 32 32"><path stroke-linejoin="round" stroke-linecap="round" stroke-width="2.222" d="M27.333 25.499 11.466 10.216m.001.001h-2.28a4.605 4.605 0 0 1-3.194-1.281l.002.002a4.276 4.276 0 0 1-1.328-3.087V3.667h2.267c1.202 0 2.355.46 3.205 1.279a4.274 4.274 0 0 1 1.328 3.087v2.184zm14.2 4.944-1.734-1.67-1.734 1.67a3.74 3.74 0 0 0-1.156 2.696v.001c0 1.011.415 1.98 1.156 2.696l1.734 1.671 1.734-1.671a3.743 3.743 0 0 0 1.156-2.695v-.001a3.75 3.75 0 0 0-1.156-2.697zm-4.533-4.366L19.4 9.126l-1.734 1.671a3.743 3.743 0 0 0-1.156 2.695v.001a3.75 3.75 0 0 0 1.156 2.697l1.734 1.67 1.734-1.67a3.74 3.74 0 0 0 1.156-2.696v-.001c0-1.011-.415-1.98-1.156-2.696zm-4.533-4.367-1.734-1.669-1.734 1.671a3.743 3.743 0 0 0-1.156 2.695v.001a3.75 3.75 0 0 0 1.156 2.697l1.734 1.67 1.734-1.67a3.74 3.74 0 0 0 1.156-2.696v-.001c0-1.011-.415-1.98-1.156-2.696z"/><path stroke-linejoin="round" stroke-linecap="round" stroke-width="2.222" d="m16.6 20.554-1.733 1.671 1.733 1.67a4.03 4.03 0 0 0 2.787 1.113h.014-.001c1.049 0 2.056-.4 2.799-1.113l1.733-1.67-1.733-1.671a4.03 4.03 0 0 0-2.787-1.113h-.014.001c-1.049 0-2.055.4-2.799 1.113zm-4.533-4.367-1.733 1.671 1.733 1.67a4.03 4.03 0 0 0 2.787 1.113h.014-.001c1.049 0 2.056-.4 2.799-1.113l1.733-1.67-1.733-1.671a4.03 4.03 0 0 0-2.787-1.113h-.014.001c-1.049 0-2.055.4-2.799 1.113zm-4.534-4.366L5.8 13.492l1.733 1.67a4.03 4.03 0 0 0 2.787 1.113h.014-.001c1.049 0 2.056-.4 2.799-1.113l1.733-1.67-1.733-1.67a4.028 4.028 0 0 0-2.788-1.114h-.013.001c-1.049 0-2.055.4-2.799 1.113z"/></symbol><symbol id="submit" viewBox="0 0 32 32"><path d="M13.523 21.423h-.001a.645.645 0 0 1-.237-.173l-3.842-4.268c-.135-.15-.205-.348-.199-.609.007-.262.084-.463.221-.615.136-.151.305-.226.52-.226s.384.075.52.226l3.3 3.666 7.679-8.53c.135-.15.308-.226.532-.226s.396.076.53.226c.136.151.209.351.209.612s-.073.462-.209.613l-8.221 9.133a.626.626 0 0 1-.237.173h-.001a.741.741 0 0 1-.276.052H13.798a.752.752 0 0 1-.281-.054l.005.002z"/><path fill="none" stroke="#000" style="stroke:var(--color2, #000)" stroke-width=".996" d="M31.502 16c0 8.562-6.941 15.502-15.502 15.502S.498 24.561.498 16C.498 7.438 7.439.498 16 .498S31.502 7.439 31.502 16z"/></symbol><symbol id="check-mark" viewBox="0 0 32 32"><path stroke-width=".66" d="m10.255 28.415-.002-.001a1.47 1.47 0 0 1-.549-.402L.791 18.11c-.313-.348-.475-.808-.461-1.413.017-.607.194-1.074.512-1.427.315-.35.708-.525 1.205-.525s.891.174 1.206.524l7.655 8.504L28.72 3.986c.313-.347.714-.524 1.233-.524.517 0 .917.176 1.23.524.315.351.485.814.485 1.419 0 .607-.17 1.071-.485 1.421L12.114 28.01a1.47 1.47 0 0 1-.549.402l-.002.001c-.19.077-.409.121-.64.121h-.016.001-.015c-.23 0-.45-.045-.651-.126l.012.004z"/></symbol><symbol id="check-box" viewBox="0 0 32 32"><path stroke-width=".8" d="M4.8.4h22.4a4.4 4.4 0 0 1 4.4 4.4v22.4a4.4 4.4 0 0 1-4.4 4.4H4.8a4.4 4.4 0 0 1-4.4-4.4V4.8A4.4 4.4 0 0 1 4.8.4z"/></symbol><symbol id="phone" viewBox="0 0 32 32"><path fill="#394e2d" style="fill:var(--color8, #394e2d)" d="M10 28c9.925 0 18-8.075 18-18a7.026 7.026 0 0 0-6.076-6.945l-.036-.004a2.038 2.038 0 0 0-2.083 1.188l-.005.013-2.512 5.861a1.98 1.98 0 0 0 .178 1.895l-.005-.007 2.076 3.175a9.635 9.635 0 0 1-4.344 4.351l-.056.025L12 17.464a1.93 1.93 0 0 0-1.09-.333c-.289 0-.563.063-.81.176l.012-.005-5.861 2.5A2.041 2.041 0 0 0 3.052 21.9l-.001-.009c.467 3.462 3.398 6.103 6.948 6.112H10zM21.637 5.037C24.111 5.364 26 7.459 26 9.996V10c-.008 8.834-7.166 15.992-15.999 16h-.004a5 5 0 0 1-4.956-4.337l-.003-.025 5.863-2.5 3.125 2.088a2.007 2.007 0 0 0 1.975.133l-.012.005a11.643 11.643 0 0 0 5.319-5.258l.03-.067c.126-.254.199-.554.199-.87 0-.406-.121-.784-.329-1.1l.005.008-2.087-3.173 2.512-5.864z"/></symbol><symbol id="burger" viewBox="0 0 32 32"><path stroke-linecap="round" stroke-width="2.667" d="M6.667 6.667h18.667M6.667 16h18.667M6.667 25.333h18.667"/></symbol><symbol id="cross" viewBox="0 0 32 32"><path d="M25.135 8.601a1.226 1.226 0 0 0-.389-1.999l-.008-.003a1.221 1.221 0 0 0-1.337.265l-7.4 7.4-7.4-7.4a1.227 1.227 0 0 0-1.735 1.735l7.4 7.4-7.4 7.399a1.229 1.229 0 0 0 .867 2.096h.001c.339 0 .646-.138.868-.36l7.399-7.4 7.4 7.4a1.227 1.227 0 1 0 1.734-1.736l-7.4-7.4 7.4-7.397z"/></symbol><symbol id="plus" viewBox="0 0 32 32"><path d="M24 17.33h-6.666v6.667a1.334 1.334 0 0 1-2.668 0v-6.666H7.999a1.333 1.333 0 0 1 0-2.668h6.667V7.996a1.333 1.333 0 0 1 2.668 0v6.667H24a1.334 1.334 0 0 1 0 2.668z"/></symbol><symbol id="image" viewBox="0 0 32 32"><path d="M28 4H4C2.667 4 1.333 5.333 1.333 6.667v18.666C1.333 26.8 2.533 28 4 28h24c1.333 0 2.666-1.333 2.666-2.667V6.667C30.666 5.334 29.333 4 28 4zm0 21.227c-.027.04-.08.08-.107.107H4V6.774l.106-.106h23.773c.04.027.08.08.107.106v18.453h.013zM14.667 20.68l-3.333-4.013-4.667 6h18.667l-6-8-4.667 6.013z"/></symbol></defs></svg>