<svg aria-hidden="true" style="position: absolute; width: 0; height: 0; overflow: hidden;" version="1.1" xmlns="http://www.w3.org/2000/svg" xmlns:xlink="http://www.w3.org/1999/xlink">
<defs>
<symbol id="burger" viewBox="0 0 32 32">
<path stroke-linejoin="miter" stroke-linecap="round" stroke-miterlimit="4" stroke-width="2.4615" d="M7.385 6.154h17.231M7.385 14.769h17.231M7.385 23.385h17.231"></path>
</symbol>
<symbol id="cross" viewBox="0 0 32 32">
<path d="M25.135 8.601c0.223-0.222 0.361-0.529 0.361-0.869 0-0.508-0.309-0.944-0.75-1.13l-0.008-0.003c-0.139-0.059-0.301-0.094-0.47-0.094-0.339 0-0.645 0.137-0.867 0.359l-7.4 7.4-7.4-7.4c-0.221-0.216-0.524-0.35-0.858-0.35-0.677 0-1.227 0.549-1.227 1.227 0 0.334 0.134 0.637 0.35 0.858l7.4 7.4-7.4 7.399c-0.221 0.222-0.357 0.529-0.357 0.867 0 0.677 0.547 1.226 1.224 1.229h0c0 0 0.001 0 0.001 0 0.339 0 0.646-0.138 0.868-0.36l7.399-7.4 7.4 7.4c0.222 0.222 0.529 0.359 0.867 0.359 0.678 0 1.227-0.549 1.227-1.227 0-0.339-0.137-0.646-0.36-0.868l-7.4-7.4 7.4-7.397z"></path>
</symbol>
<symbol id="Ellipse-43" viewBox="0 0 32 32">
<path stroke-linejoin="miter" stroke-linecap="butt" stroke-miterlimit="4" stroke-width="3.4692" d="M28.625 15.328c0 7.344-5.953 13.297-13.297 13.297s-13.297-5.953-13.297-13.297c0-7.344 5.953-13.297 13.297-13.297s13.297 5.953 13.297 13.297z"></path>
</symbol>
<symbol id="Ellipse-44" viewBox="0 0 32 32">
<path stroke-linejoin="miter" stroke-linecap="butt" stroke-miterlimit="4" stroke-width="3.4692" d="M28.625 15.328c0 7.344-5.953 13.297-13.297 13.297s-13.297-5.953-13.297-13.297c0-7.344 5.953-13.297 13.297-13.297s13.297 5.953 13.297 13.297z"></path>
</symbol>
<symbol id="Frame-54" viewBox="0 0 32 32">
<path stroke-linejoin="miter" stroke-linecap="butt" stroke-miterlimit="4" stroke-width="0.8" d="M4.8 0.4h22.4c2.43 0 4.4 1.97 4.4 4.4v22.4c0 2.43-1.97 4.4-4.4 4.4h-22.4c-2.43 0-4.4-1.97-4.4-4.4v-22.4c0-2.43 1.97-4.4 4.4-4.4z"></path>
</symbol>
<symbol id="Frame-164" viewBox="0 0 32 32">
<path fill="none" stroke="#d5ba75" style="stroke: var(--color1, #d5ba75)" stroke-linejoin="round" stroke-linecap="round" stroke-miterlimit="4" stroke-width="1.4066" d="M24.615 9.143l6.681 6.857-6.681 6.681M29.89 15.824h-29.187"></path>
</symbol>
<symbol id="Frame-165" viewBox="0 0 32 32">
<path fill="none" stroke="#d5ba75" style="stroke: var(--color1, #d5ba75)" stroke-linejoin="round" stroke-linecap="round" stroke-miterlimit="4" stroke-width="1.4066" d="M7.385 9.143l-6.681 6.857 6.681 6.681M2.11 15.824h29.187"></path>
</symbol>
<symbol id="Frame-168" viewBox="0 0 32 32">
<path d="M13.523 21.423l-0.001-0c-0.080-0.032-0.159-0.087-0.237-0.173l-3.842-4.268c-0.135-0.15-0.205-0.348-0.199-0.609 0.007-0.262 0.084-0.463 0.221-0.615 0.136-0.151 0.305-0.226 0.52-0.226s0.384 0.075 0.52 0.226l3.3 3.666 7.679-8.53c0.135-0.15 0.308-0.226 0.532-0.226s0.396 0.076 0.53 0.226c0.136 0.151 0.209 0.351 0.209 0.612s-0.073 0.462-0.209 0.613l-8.221 9.133c-0.077 0.086-0.157 0.142-0.237 0.173l-0.001 0c-0.082 0.033-0.176 0.052-0.276 0.052-0.002 0-0.005 0-0.007-0h0c-0.002 0-0.004 0-0.006 0-0.099 0-0.194-0.019-0.281-0.054l0.005 0.002z"></path>
<path fill="none" stroke="#000" style="stroke: var(--color2, #000)" stroke-linejoin="miter" stroke-linecap="butt" stroke-miterlimit="4" stroke-width="0.9956" d="M31.502 16c0 8.562-6.941 15.502-15.502 15.502s-15.502-6.941-15.502-15.502c0-8.562 6.941-15.502 15.502-15.502s15.502 6.941 15.502 15.502z"></path>
</symbol>
<symbol id="Group-1" viewBox="0 0 32 32">
<path stroke-linejoin="round" stroke-linecap="round" stroke-miterlimit="4" stroke-width="2.222" d="M4.667 25.499l15.867-15.283M20.533 10.217h2.267c1.202 0 2.355-0.46 3.205-1.279 0.815-0.779 1.324-1.873 1.328-3.087v-2.184h-2.267c-1.202 0-2.355 0.46-3.205 1.279-0.816 0.779-1.324 1.874-1.328 3.087v2.184zM6.333 15.161l1.734-1.67 1.734 1.67c0.71 0.681 1.153 1.637 1.156 2.696v0.001c0 1.011-0.415 1.98-1.156 2.696l-1.734 1.671-1.734-1.671c-0.71-0.681-1.152-1.637-1.156-2.695v-0.001c0-1.011 0.415-1.98 1.156-2.697zM10.866 10.795l1.734-1.67 1.734 1.671c0.71 0.681 1.152 1.637 1.156 2.695v0.001c0 1.011-0.415 1.98-1.156 2.697l-1.734 1.67-1.734-1.67c-0.71-0.681-1.153-1.637-1.156-2.696v-0.001c0-1.011 0.415-1.98 1.156-2.696zM15.399 6.428l1.734-1.669 1.734 1.671c0.71 0.681 1.152 1.637 1.156 2.695v0.001c0 1.011-0.415 1.98-1.156 2.697l-1.734 1.669-1.734-1.67c-0.71-0.681-1.153-1.637-1.156-2.696v-0.001c0-1.011 0.415-1.98 1.156-2.696z"></path>
<path stroke-linejoin="round" stroke-linecap="round" stroke-miterlimit="4" stroke-width="2.222" d="M15.4 20.554l1.733 1.671-1.733 1.67c-0.724 0.689-1.706 1.113-2.787 1.113-0.005 0-0.009 0-0.014-0h0.001c-1.049 0-2.056-0.4-2.799-1.113l-1.733-1.67 1.733-1.671c0.724-0.689 1.706-1.113 2.787-1.113 0.005 0 0.009 0 0.014 0h-0.001c1.049 0 2.055 0.4 2.799 1.113zM19.933 16.187l1.733 1.671-1.733 1.67c-0.724 0.689-1.706 1.113-2.787 1.113-0.005 0-0.009 0-0.014-0h0.001c-1.049 0-2.056-0.4-2.799-1.113l-1.733-1.67 1.733-1.671c0.724-0.689 1.706-1.113 2.787-1.113 0.005 0 0.009 0 0.014 0h-0.001c1.049 0 2.055 0.4 2.799 1.113zM24.467 11.821l1.733 1.671-1.733 1.67c-0.724 0.689-1.706 1.113-2.787 1.113-0.005 0-0.009 0-0.014-0h0.001c-1.049 0-2.056-0.4-2.799-1.113l-1.733-1.67 1.733-1.67c0.724-0.69 1.706-1.114 2.788-1.114 0.004 0 0.009 0 0.013 0h-0.001c1.049 0 2.055 0.4 2.799 1.113z"></path>
</symbol>
<symbol id="Group" viewBox="0 0 32 32">
<path stroke-linejoin="round" stroke-linecap="round" stroke-miterlimit="4" stroke-width="2.222" d="M27.333 25.499l-15.867-15.283M11.467 10.217h-2.267c-0.004 0-0.008 0-0.013 0-1.239 0-2.364-0.487-3.194-1.281l0.002 0.002c-0.815-0.779-1.324-1.873-1.328-3.087v-2.184h2.267c1.202 0 2.355 0.46 3.205 1.279 0.816 0.779 1.324 1.874 1.328 3.087v2.184zM25.667 15.161l-1.734-1.67-1.734 1.67c-0.71 0.681-1.153 1.637-1.156 2.696v0.001c0 1.011 0.415 1.98 1.156 2.696l1.734 1.671 1.734-1.671c0.71-0.681 1.152-1.637 1.156-2.695v-0.001c0-1.011-0.415-1.98-1.156-2.697zM21.134 10.795l-1.734-1.669-1.734 1.671c-0.71 0.681-1.152 1.637-1.156 2.695v0.001c0 1.011 0.415 1.98 1.156 2.697l1.734 1.67 1.734-1.67c0.71-0.681 1.153-1.637 1.156-2.696v-0.001c0-1.011-0.415-1.98-1.156-2.696zM16.601 6.428l-1.734-1.669-1.734 1.671c-0.71 0.681-1.152 1.637-1.156 2.695v0.001c0 1.011 0.415 1.98 1.156 2.697l1.734 1.67 1.734-1.67c0.71-0.681 1.153-1.637 1.156-2.696v-0.001c0-1.011-0.415-1.98-1.156-2.696z"></path>
<path stroke-linejoin="round" stroke-linecap="round" stroke-miterlimit="4" stroke-width="2.222" d="M16.6 20.554l-1.733 1.671 1.733 1.67c0.724 0.689 1.706 1.113 2.787 1.113 0.005 0 0.009 0 0.014-0h-0.001c1.049 0 2.056-0.4 2.799-1.113l1.733-1.67-1.733-1.671c-0.724-0.689-1.706-1.113-2.787-1.113-0.005 0-0.009 0-0.014 0h0.001c-1.049 0-2.055 0.4-2.799 1.113zM12.067 16.187l-1.733 1.671 1.733 1.67c0.724 0.689 1.706 1.113 2.787 1.113 0.005 0 0.009 0 0.014-0h-0.001c1.049 0 2.056-0.4 2.799-1.113l1.733-1.67-1.733-1.671c-0.724-0.689-1.706-1.113-2.787-1.113-0.005 0-0.009 0-0.014 0h0.001c-1.049 0-2.055 0.4-2.799 1.113zM7.533 11.821l-1.733 1.671 1.733 1.67c0.724 0.689 1.706 1.113 2.787 1.113 0.005 0 0.009 0 0.014-0h-0.001c1.049 0 2.056-0.4 2.799-1.113l1.733-1.67-1.733-1.67c-0.724-0.69-1.706-1.114-2.788-1.114-0.004 0-0.009 0-0.013 0h0.001c-1.049 0-2.055 0.4-2.799 1.113z"></path>
</symbol>
<symbol id="image-placeholder" viewBox="0 0 32 32">
<path d="M27.863 3.98h-23.882c-1.327 0-2.654 1.327-2.654 2.654v18.575c0 1.459 1.194 2.654 2.654 2.654h23.883c1.327 0 2.654-1.327 2.654-2.654v-18.575c0-1.327-1.327-2.654-2.654-2.654zM27.863 25.103c-0.027 0.040-0.080 0.080-0.106 0.106h-23.777v-18.469l0.106-0.106h23.657c0.040 0.026 0.080 0.079 0.106 0.106v18.363h0.013zM14.595 20.579l-3.317-3.994-4.644 5.971h18.575l-5.971-7.961-4.644 5.984z"></path>
</symbol>
<symbol id="ph_phone" viewBox="0 0 32 32">
<path fill="#394e2d" style="fill: var(--color3, #394e2d)" d="M10 28c9.925 0 18-8.075 18-18-0.009-3.551-2.65-6.483-6.076-6.945l-0.036-0.004c-0.068-0.008-0.146-0.012-0.225-0.012-0.827 0-1.538 0.492-1.858 1.2l-0.005 0.013-2.512 5.861c-0.102 0.231-0.161 0.501-0.161 0.784 0 0.411 0.125 0.794 0.339 1.111l-0.005-0.007 2.076 3.175c-0.958 1.915-2.479 3.428-4.344 4.351l-0.056 0.025-3.137-2.088c-0.306-0.209-0.683-0.333-1.090-0.333-0.289 0-0.563 0.063-0.81 0.176l0.012-0.005-5.861 2.5c-0.72 0.325-1.212 1.036-1.212 1.863 0 0.079 0.005 0.158 0.013 0.235l-0.001-0.009c0.467 3.462 3.398 6.103 6.948 6.112h0.001zM21.637 5.037c2.474 0.327 4.363 2.422 4.363 4.959 0 0.001 0 0.002 0 0.004v-0c-0.008 8.834-7.166 15.992-15.999 16h-0.001c-0.001 0-0.002 0-0.003 0-2.537 0-4.632-1.889-4.956-4.337l-0.003-0.025 5.863-2.5 3.125 2.088c0.31 0.208 0.692 0.332 1.103 0.332 0.312 0 0.608-0.072 0.872-0.199l-0.012 0.005c2.339-1.149 4.19-2.992 5.319-5.258l0.030-0.067c0.126-0.254 0.199-0.554 0.199-0.87 0-0.406-0.121-0.784-0.329-1.1l0.005 0.008-2.087-3.173 2.512-5.864z"></path>
</symbol>
<symbol id="plus" viewBox="0 0 32 32">
<path d="M24 17.33h-6.667v6.667c0 0.736-0.597 1.333-1.333 1.333s-1.333-0.597-1.333-1.333v-6.666h-6.667c-0.736 0-1.333-0.597-1.333-1.334s0.597-1.334 1.333-1.334v0h6.666v-6.667c0-0.736 0.597-1.333 1.333-1.333s1.334 0.597 1.334 1.333v0 6.667h6.667c0.736 0 1.334 0.597 1.334 1.334s-0.597 1.334-1.334 1.334v0z"></path>
</symbol>
<symbol id="Vector-1" viewBox="0 0 32 32">
<path d="M25.059 16c0 0.383-0.071 0.753-0.214 1.11-0.136 0.35-0.331 0.649-0.575 0.899l0-0.001-13.202 13.202c-0.526 0.526-1.197 0.789-2.009 0.789s-1.483-0.264-2.009-0.789c-0.525-0.526-0.789-1.197-0.789-2.009 0-0.814 0.264-1.483 0.789-2.009l11.193-11.193-11.193-11.193c-0.525-0.526-0.789-1.197-0.789-2.009s0.264-1.483 0.789-2.009c0.526-0.525 1.197-0.789 2.009-0.789 0.814 0 1.483 0.263 2.009 0.789l13.202 13.202c0.287 0.287 0.49 0.598 0.608 0.932 0.121 0.335 0.181 0.694 0.181 1.077z"></path>
</symbol>
<symbol id="Vector" viewBox="0 0 32 32">
<path d="M10.91 27.733c-0.005 0-0.011 0-0.017 0-0.273 0-0.534-0.049-0.776-0.137l0.016 0.005c-0.264-0.101-0.489-0.252-0.672-0.444l-0.001-0.001-8.913-9.030c-0.38-0.384-0.562-0.884-0.545-1.497 0.018-0.612 0.217-1.11 0.597-1.495 0.38-0.385 0.864-0.577 1.451-0.577s1.071 0.192 1.451 0.576l7.41 7.508 17.567-17.798c0.38-0.384 0.873-0.577 1.477-0.577 0.604 0 1.095 0.192 1.476 0.577 0.38 0.385 0.57 0.884 0.57 1.495 0 0.613-0.19 1.113-0.57 1.498l-19.070 19.321c-0.184 0.192-0.409 0.344-0.661 0.441l-0.012 0.004c-0.226 0.084-0.488 0.132-0.76 0.132-0.006 0-0.012-0-0.018-0h0.001z"></path>
</symbol>
</defs>
</svg>
