<svg aria-hidden="true" style="position:absolute;width:0;height:0;overflow:hidden" xmlns="http://www.w3.org/2000/svg"><defs><symbol id="broken-tractor" viewBox="0 0 35 32"><path fill="#0a1e00" style="fill:var(--color1, #0a1e00)" d="M7.851 23.847c-5.787.633-5.794.634-5.93-.671-.169-1.62-.177-1.619 5.681-2.26 6.763-.742 6.744-.911 6.914.636s.169 1.547-6.665 2.294z"/><path fill="#0c2300" style="fill:var(--color2, #0c2300)" d="M2.735 12.29c-.667.561-.543 1.873.141 1.491.161-.09.677.909 1.148 2.219.524 1.459.676 2.482.392 2.641-.476.266-.606 1.776-.213 2.481.127.227.659-.26 1.252-1.145 2.993-4.464 9.648-4.144 12.291.59l.881 1.578 2.542-1.419c2.474-1.381 2.533-1.45 2.217-2.549-.179-.621-.298-1.669-.264-2.328.058-1.123-.012-1.206-1.091-1.297-.634-.054-1.768-.006-2.52.106-1.004.15-1.177.088-.649-.233.395-.241 1.553-.452 2.573-.471 1.607-.029 2.008-.191 3-1.212.63-.648 1.64-1.312 2.244-1.476 1.065-.288 1.069-.331.145-1.378-.525-.594-1.202-1.095-1.505-1.111-.58-.032-3.223.722-5.721 1.632l-1.489.542-1.167-2.091c-.642-1.15-1.089-2.368-.992-2.707.26-.914-.861-.848-1.217.071-.196.507.128 1.474 1.043 3.113.73 1.308 1.175 2.335.989 2.283s-1.232-1.059-2.324-2.238L12.456 7.24l-1.955.776c-2.161.857-6.624 3.314-7.765 4.273zm6.142 1.119 1.276 2.028-4.361 2.435-.548-1.481c-1.109-2.997-1.034-3.425.746-4.257l1.611-.753 1.276 2.028zm5.515-2.483c2.521 2.683 3.728 4.996 2.946 5.649-.324.271-1.741.099-3.459-.42-2.795-.845-2.954-.959-4.054-2.93-.63-1.128-1.093-2.232-1.03-2.454S9.68 10 10.622 9.552l1.712-.815 2.056 2.188zm8.828.313c.282.236.372.507.2.603s-.545-.017-.828-.253c-.282-.236-.372-.507-.2-.603s.545.017.828.253zm1.093-.61c.282.236.355.517.161.625s-.49-.048-.657-.348c-.167-.3-.24-.581-.161-.625s.374.113.657.348zm-.004 4.189c-.364.991-.299 1.857.237 3.136.649 1.548.949 1.837 2.428 2.339 2.315.785 4.198.062 5.245-2.012 1.994-3.953-1.997-7.852-5.841-5.706-1.105.617-1.713 1.277-2.069 2.243zm4.26-.591c1.269.029 2.149 1.595 1.843 2.672-.308 1.082-1.738 1.635-2.845 1.101-1.31-.632-1.011-2.189-1.011-2.189s1.014-1.607 2.013-1.584z"/></symbol><symbol id="circle" viewBox="0 0 32 32"><path stroke-width=".996" d="M31.502 16c0 8.562-6.941 15.502-15.502 15.502S.498 24.561.498 16C.498 7.438 7.439.498 16 .498S31.502 7.439 31.502 16z"/></symbol><symbol id="burger" viewBox="0 0 32 32"><path stroke-linecap="round" stroke-width="2.462" d="M7.385 6.154h17.231M7.385 14.769h17.231M7.385 23.385h17.231"/></symbol><symbol id="cross" viewBox="0 0 32 32"><path d="M25.135 8.601a1.226 1.226 0 0 0-.389-1.999l-.008-.003a1.221 1.221 0 0 0-1.337.265l-7.4 7.4-7.4-7.4a1.227 1.227 0 0 0-1.735 1.735l7.4 7.4-7.4 7.399a1.229 1.229 0 0 0 .867 2.096h.001c.339 0 .646-.138.868-.36l7.399-7.4 7.4 7.4a1.227 1.227 0 1 0 1.734-1.736l-7.4-7.4 7.4-7.397z"/></symbol><symbol id="point-filled" viewBox="0 0 32 32"><path stroke-width="3.469" d="M28.625 15.328c0 7.344-5.953 13.297-13.297 13.297S2.031 22.672 2.031 15.328 7.984 2.031 15.328 2.031s13.297 5.953 13.297 13.297z"/></symbol><symbol id="point-outline" viewBox="0 0 32 32"><path stroke-width="3.469" d="M28.625 15.328c0 7.344-5.953 13.297-13.297 13.297S2.031 22.672 2.031 15.328 7.984 2.031 15.328 2.031s13.297 5.953 13.297 13.297z"/></symbol><symbol id="check-box" viewBox="0 0 32 32"><path stroke-width=".8" d="M4.8.4h22.4a4.4 4.4 0 0 1 4.4 4.4v22.4a4.4 4.4 0 0 1-4.4 4.4H4.8a4.4 4.4 0 0 1-4.4-4.4V4.8A4.4 4.4 0 0 1 4.8.4z"/></symbol><symbol id="right-arrow" viewBox="0 0 32 32"><path fill="none" stroke="#d5ba75" style="stroke:var(--color3, #d5ba75)" stroke-linejoin="round" stroke-linecap="round" stroke-width="1.407" d="M24.615 9.143 31.296 16l-6.681 6.681m5.275-6.857H.703"/></symbol><symbol id="left-arrow" viewBox="0 0 32 32"><path fill="none" stroke="#d5ba75" style="stroke:var(--color3, #d5ba75)" stroke-linejoin="round" stroke-linecap="round" stroke-width="1.407" d="M7.385 9.143.704 16l6.681 6.681M2.11 15.824h29.187"/></symbol><symbol id="success-mark" viewBox="0 0 32 32"><path d="M13.523 21.423h-.001a.645.645 0 0 1-.237-.173l-3.842-4.268c-.135-.15-.205-.348-.199-.609.007-.262.084-.463.221-.615.136-.151.305-.226.52-.226s.384.075.52.226l3.3 3.666 7.679-8.53c.135-.15.308-.226.532-.226s.396.076.53.226c.136.151.209.351.209.612s-.073.462-.209.613l-8.221 9.133a.626.626 0 0 1-.237.173h-.001a.741.741 0 0 1-.276.052H13.798a.752.752 0 0 1-.281-.054l.005.002z"/><path fill="none" stroke="#000" style="stroke:var(--color4, #000)" stroke-width=".996" d="M31.502 16c0 8.562-6.941 15.502-15.502 15.502S.498 24.561.498 16C.498 7.438 7.439.498 16 .498S31.502 7.439 31.502 16z"/></symbol><symbol id="right-ear" viewBox="0 0 32 32"><path stroke-linejoin="round" stroke-linecap="round" stroke-width="2.222" d="m4.667 25.499 15.867-15.283m-.001.001H22.8c1.202 0 2.355-.46 3.205-1.279a4.276 4.276 0 0 0 1.328-3.087V3.667h-2.267c-1.202 0-2.355.46-3.205 1.279a4.274 4.274 0 0 0-1.328 3.087v2.184zm-14.2 4.944 1.734-1.67 1.734 1.67a3.74 3.74 0 0 1 1.156 2.696v.001c0 1.011-.415 1.98-1.156 2.696l-1.734 1.671-1.734-1.671a3.743 3.743 0 0 1-1.156-2.695v-.001a3.75 3.75 0 0 1 1.156-2.697zm4.533-4.366 1.734-1.67 1.734 1.671a3.743 3.743 0 0 1 1.156 2.695v.001a3.75 3.75 0 0 1-1.156 2.697l-1.734 1.67-1.734-1.67a3.74 3.74 0 0 1-1.156-2.696v-.001c0-1.011.415-1.98 1.156-2.696zm4.533-4.367 1.734-1.669 1.734 1.671a3.743 3.743 0 0 1 1.156 2.695v.001a3.75 3.75 0 0 1-1.156 2.697l-1.734 1.669-1.734-1.67a3.74 3.74 0 0 1-1.156-2.696v-.001c0-1.011.415-1.98 1.156-2.696z"/><path stroke-linejoin="round" stroke-linecap="round" stroke-width="2.222" d="m15.4 20.554 1.733 1.671-1.733 1.67a4.03 4.03 0 0 1-2.787 1.113h-.014.001c-1.049 0-2.056-.4-2.799-1.113l-1.733-1.67 1.733-1.671a4.03 4.03 0 0 1 2.787-1.113h.014-.001c1.049 0 2.055.4 2.799 1.113zm4.533-4.367 1.733 1.671-1.733 1.67a4.03 4.03 0 0 1-2.787 1.113h-.014.001c-1.049 0-2.056-.4-2.799-1.113l-1.733-1.67 1.733-1.671a4.03 4.03 0 0 1 2.787-1.113h.014-.001c1.049 0 2.055.4 2.799 1.113zm4.534-4.366 1.733 1.671-1.733 1.67a4.03 4.03 0 0 1-2.787 1.113h-.014.001c-1.049 0-2.056-.4-2.799-1.113l-1.733-1.67 1.733-1.67a4.028 4.028 0 0 1 2.788-1.114h.013-.001c1.049 0 2.055.4 2.799 1.113z"/></symbol><symbol id="left-ear" viewBox="0 0 32 32"><path stroke-linejoin="round" stroke-linecap="round" stroke-width="2.222" d="M27.333 25.499 11.466 10.216m.001.001h-2.28a4.605 4.605 0 0 1-3.194-1.281l.002.002a4.276 4.276 0 0 1-1.328-3.087V3.667h2.267c1.202 0 2.355.46 3.205 1.279a4.274 4.274 0 0 1 1.328 3.087v2.184zm14.2 4.944-1.734-1.67-1.734 1.67a3.74 3.74 0 0 0-1.156 2.696v.001c0 1.011.415 1.98 1.156 2.696l1.734 1.671 1.734-1.671a3.743 3.743 0 0 0 1.156-2.695v-.001a3.75 3.75 0 0 0-1.156-2.697zm-4.533-4.366L19.4 9.126l-1.734 1.671a3.743 3.743 0 0 0-1.156 2.695v.001a3.75 3.75 0 0 0 1.156 2.697l1.734 1.67 1.734-1.67a3.74 3.74 0 0 0 1.156-2.696v-.001c0-1.011-.415-1.98-1.156-2.696zm-4.533-4.367-1.734-1.669-1.734 1.671a3.743 3.743 0 0 0-1.156 2.695v.001a3.75 3.75 0 0 0 1.156 2.697l1.734 1.67 1.734-1.67a3.74 3.74 0 0 0 1.156-2.696v-.001c0-1.011-.415-1.98-1.156-2.696z"/><path stroke-linejoin="round" stroke-linecap="round" stroke-width="2.222" d="m16.6 20.554-1.733 1.671 1.733 1.67a4.03 4.03 0 0 0 2.787 1.113h.014-.001c1.049 0 2.056-.4 2.799-1.113l1.733-1.67-1.733-1.671a4.03 4.03 0 0 0-2.787-1.113h-.014.001c-1.049 0-2.055.4-2.799 1.113zm-4.533-4.367-1.733 1.671 1.733 1.67a4.03 4.03 0 0 0 2.787 1.113h.014-.001c1.049 0 2.056-.4 2.799-1.113l1.733-1.67-1.733-1.671a4.03 4.03 0 0 0-2.787-1.113h-.014.001c-1.049 0-2.055.4-2.799 1.113zm-4.534-4.366L5.8 13.492l1.733 1.67a4.03 4.03 0 0 0 2.787 1.113h.014-.001c1.049 0 2.056-.4 2.799-1.113l1.733-1.67-1.733-1.67a4.028 4.028 0 0 0-2.788-1.114h-.013.001c-1.049 0-2.055.4-2.799 1.113z"/></symbol><symbol id="image-placeholder" viewBox="0 0 32 32"><path d="M27.863 3.98H3.981c-1.327 0-2.654 1.327-2.654 2.654v18.575a2.662 2.662 0 0 0 2.654 2.654h23.883c1.327 0 2.654-1.327 2.654-2.654V6.634c0-1.327-1.327-2.654-2.654-2.654zm0 21.123c-.027.04-.08.08-.106.106H3.98V6.74l.106-.106h23.657c.04.026.08.079.106.106v18.363h.013zm-13.268-4.524-3.317-3.994-4.644 5.971h18.575l-5.971-7.961-4.644 5.984z"/></symbol><symbol id="phone" viewBox="0 0 32 32"><path fill="#394e2d" style="fill:var(--color5, #394e2d)" d="M10 28c9.925 0 18-8.075 18-18a7.026 7.026 0 0 0-6.076-6.945l-.036-.004a2.038 2.038 0 0 0-2.083 1.188l-.005.013-2.512 5.861a1.98 1.98 0 0 0 .178 1.895l-.005-.007 2.076 3.175a9.635 9.635 0 0 1-4.344 4.351l-.056.025L12 17.464a1.93 1.93 0 0 0-1.09-.333c-.289 0-.563.063-.81.176l.012-.005-5.861 2.5A2.041 2.041 0 0 0 3.052 21.9l-.001-.009c.467 3.462 3.398 6.103 6.948 6.112H10zM21.637 5.037C24.111 5.364 26 7.459 26 9.996V10c-.008 8.834-7.166 15.992-15.999 16h-.004a5 5 0 0 1-4.956-4.337l-.003-.025 5.863-2.5 3.125 2.088a2.007 2.007 0 0 0 1.975.133l-.012.005a11.643 11.643 0 0 0 5.319-5.258l.03-.067c.126-.254.199-.554.199-.87 0-.406-.121-.784-.329-1.1l.005.008-2.087-3.173 2.512-5.864z"/></symbol><symbol id="plus" viewBox="0 0 32 32"><path d="M24 17.33h-6.667v6.667a1.333 1.333 0 0 1-2.666 0v-6.666H8a1.333 1.333 0 0 1 0-2.668h6.666V7.996a1.333 1.333 0 0 1 2.667 0v6.667H24a1.334 1.334 0 0 1 0 2.668z"/></symbol><symbol id="next" viewBox="0 0 32 32"><path d="M25.059 16c0 .383-.071.753-.214 1.11-.136.35-.331.649-.575.899v-.001L11.068 31.21c-.526.526-1.197.789-2.009.789s-1.483-.264-2.009-.789c-.525-.526-.789-1.197-.789-2.009 0-.814.264-1.483.789-2.009l11.193-11.193L7.05 4.806c-.525-.526-.789-1.197-.789-2.009s.264-1.483.789-2.009c.526-.525 1.197-.789 2.009-.789.814 0 1.483.263 2.009.789L24.27 13.99c.287.287.49.598.608.932.121.335.181.694.181 1.077z"/></symbol><symbol id="check-mark" viewBox="0 0 32 32"><path d="M10.91 27.733h-.017c-.273 0-.534-.049-.776-.137l.016.005a1.816 1.816 0 0 1-.672-.444l-.001-.001-8.913-9.03c-.38-.384-.562-.884-.545-1.497.018-.612.217-1.11.597-1.495s.864-.577 1.451-.577 1.071.192 1.451.576l7.41 7.508L28.478 4.843c.38-.384.873-.577 1.477-.577.604 0 1.095.192 1.476.577.38.385.57.884.57 1.495 0 .613-.19 1.113-.57 1.498l-19.07 19.321a1.824 1.824 0 0 1-.661.441l-.012.004a2.203 2.203 0 0 1-.76.132h-.018.001z"/></symbol></defs></svg>