<svg width="739" height="817" viewBox="0 0 739 817" fill="none" xmlns="http://www.w3.org/2000/svg">
<path opacity="0.739" fill-rule="evenodd" clip-rule="evenodd" d="M267.019 238.556C238.201 242.051 214.907 254.43 197.137 275.691C144.785 290.236 113.734 321.71 103.981 370.113C100.129 423.956 125.046 460.902 178.733 480.953C202.598 487.982 226.746 487.84 251.178 480.531C190.245 490.481 146.167 471.027 118.945 422.169C102.279 380.723 110.178 342.743 142.641 308.232C157.423 293.772 175.058 283.649 195.548 277.862C175.008 306.048 172.691 334.89 188.599 364.388C190.689 368.112 193.117 371.589 195.887 374.821C171.287 330.976 180.49 292.724 223.499 260.066C248.147 244.77 274.496 240.491 302.544 247.227C330.678 255.083 353.47 269.634 370.918 290.882C330.185 288.191 303.355 304.834 290.429 340.81C291.37 341.246 291.991 340.963 292.295 339.961C304.668 308.791 328.775 293.79 364.619 294.957C380.838 297.685 393.172 305.377 401.622 318.036C410.983 333.291 413.217 349.685 408.323 367.219C408.882 368.202 409.372 368.1 409.792 366.912C416.808 343.501 412.123 322.713 395.739 304.55C389.315 298.489 381.623 294.272 372.663 291.897C348.057 257.314 312.842 239.533 267.019 238.556Z" fill="black"/>
<path opacity="0.74" fill-rule="evenodd" clip-rule="evenodd" d="M330.228 335.713C281.973 342.469 251.559 367.218 238.986 409.962C232.672 446.407 244.928 475.728 275.756 497.928C292.379 508.385 310.932 513.245 331.415 512.509C285.24 507.955 256.335 485.33 244.699 444.637C239.225 406.451 253.9 375.639 288.723 352.203C306.022 342.503 324.64 337.08 344.577 335.934C339.67 335.811 334.886 335.737 330.228 335.713Z" fill="black"/>
<path opacity="0.639" fill-rule="evenodd" clip-rule="evenodd" d="M370.265 365.975C330.234 375.168 311.884 398.163 315.212 434.961C317.117 444.508 321.436 452.955 328.17 460.304C310.707 433.386 314.087 408 338.307 384.149C361.451 367.199 385.761 364.572 411.237 376.268C416.976 379.605 422.067 383.599 426.511 388.251C426.98 387.234 426.796 386.352 425.959 385.608C411.321 370.546 392.757 364.002 370.265 365.975Z" fill="black"/>
<path opacity="0.635" fill-rule="evenodd" clip-rule="evenodd" d="M438.146 402.375C413.977 407.439 398.74 420.893 392.435 442.737C395.715 436.36 400.096 429.619 405.577 422.516C415.394 411.611 427.893 406.24 443.074 406.404C456.548 408.94 465.7 416.071 470.531 427.798C474.193 437.562 474.75 447.563 472.202 457.799C455.939 464.041 444.515 474.552 437.928 489.333C438.703 489.785 439.355 489.649 439.885 488.924C451.715 468.915 469.718 460.554 493.897 463.843C507.545 471.807 513.192 483.35 510.838 498.471C509.783 504.081 508.023 509.508 505.556 514.749C507.653 513.398 509.11 511.407 509.927 508.778C516.054 492.835 514.025 478.236 503.841 464.984C495.432 457.315 485.243 454.999 473.273 458.035C479.42 438.975 475.136 422.548 460.422 408.757C453.673 404.681 446.247 402.554 438.146 402.375Z" fill="black"/>
<path opacity="0.6" fill-rule="evenodd" clip-rule="evenodd" d="M387.081 441.557C364.163 451.177 353.12 467.587 353.95 490.786C358.847 519.686 377.407 534.355 409.628 534.794C417.828 534.046 425.536 531.822 432.752 528.123C401.667 538.159 378.136 530.659 362.158 505.626C352.867 483.718 357.862 464.433 377.142 447.772C380.477 445.682 383.79 443.61 387.081 441.557Z" fill="black"/>
<path opacity="0.452" fill-rule="evenodd" clip-rule="evenodd" d="M449.659 511.254C447.68 514.192 446.826 517.436 447.096 520.987C446.699 531.684 451.018 540.132 460.053 546.331C474.857 549.97 486.367 545.571 494.585 533.137C496.987 529.333 498.208 525.399 498.248 521.335C494.914 532.799 487.168 540.549 475.013 544.584C462.51 545.955 454.206 541.252 450.1 530.476C448.324 524.171 448.177 517.764 449.659 511.254Z" fill="black"/>
</svg>
