<svg width="61" height="46" viewBox="0 0 61 46" fill="none" xmlns="http://www.w3.org/2000/svg">
<g filter="url(#filter0_d_2013_16)">
<path fill-rule="evenodd" clip-rule="evenodd" d="M10.9131 1.32276C9.32733 1.62748 8.34234 3.8639 9.79354 3.8639C10.1345 3.8639 10.068 5.94681 9.64664 8.49258C9.17657 11.3284 8.49774 13.1213 7.89391 13.1213C6.88263 13.1213 5.30773 15.4487 5.30773 16.9438C5.30773 17.4252 6.60971 17.1181 8.3694 16.2225C17.2475 11.7033 27.7291 18.2352 27.7291 28.2856V31.636H33.1264C38.3792 31.636 38.5369 31.5789 39.017 29.5145C39.2884 28.3481 40.043 26.5444 40.694 25.5076C41.8027 23.7425 41.7648 23.545 40.101 22.4218C39.1237 21.7615 37.2442 20.8141 35.926 20.3158C34.1648 19.6508 33.9413 19.3947 35.0856 19.3515C35.9422 19.3191 38.0081 20.0226 39.6758 20.9144C42.3022 22.3192 43.0985 22.4195 45.6267 21.6643C47.2318 21.1844 49.4662 21.0224 50.5919 21.304C52.575 21.8008 52.6214 21.7352 52.0709 19.2049C51.7578 17.7685 51.1145 16.3467 50.6398 16.0466C49.7306 15.4703 44.7708 14.3023 39.9062 13.5186L37.0069 13.0511V8.61215C37.0069 6.17053 37.3849 3.79524 37.8473 3.33392C39.0936 2.09035 37.221 1.18313 35.8131 2.34878C35.0376 2.9914 34.6874 4.85058 34.6874 8.3298C34.6874 11.1062 34.4794 13.1706 34.2251 12.9176C33.9715 12.6638 33.1883 10.0895 32.4855 7.19578L31.2082 1.93529L27.3425 1.42459C23.0693 0.859121 13.6268 0.801263 10.9131 1.32276ZM19.8429 8.68544L20.0749 13.1213H15.446H10.8172L11.2687 10.2283C12.1826 4.37537 12.6905 3.7505 16.3228 4.01202L19.611 4.24963L19.8429 8.68544ZM31.0126 9.64975C32.6687 16.2703 32.5311 21.1042 30.6763 21.4552C29.9063 21.601 27.7685 20.0427 25.4575 17.6504C21.697 13.7569 21.5439 13.4283 21.5439 9.24551C21.5439 6.85171 21.792 4.64538 22.0951 4.34297C22.3982 4.04056 24.2244 3.89553 26.1542 4.02128L29.6619 4.24963L31.0126 9.64975ZM11.1063 16.7725C3.96709 18.5561 0.738415 28.3195 5.21495 34.5914C7.35039 37.5846 12.7818 39.7153 16.5014 39.0187C20.0486 38.3545 24.294 34.6222 25.439 31.1615C28.2154 22.7666 20.0254 14.5438 11.1063 16.7725ZM45.0182 18.1357C45.2625 18.7721 45.1628 19.2928 44.7971 19.2928C44.4306 19.2928 43.9304 18.7721 43.6853 18.1357C43.441 17.4992 43.5407 16.9785 43.9064 16.9785C44.2729 16.9785 44.7731 17.4992 45.0182 18.1357ZM47.3377 18.1357C47.582 18.7721 47.4451 19.2928 47.0338 19.2928C46.6217 19.2928 46.2847 18.7721 46.2847 18.1357C46.2847 17.4992 46.4215 16.9785 46.5885 16.9785C46.7555 16.9785 47.0926 17.4992 47.3377 18.1357ZM19.168 23.6399C22.583 27.9708 19.9705 33.9503 14.6644 33.9503C8.94462 33.9503 6.08861 27.6337 9.95281 23.5296C12.5204 20.8018 16.973 20.855 19.168 23.6399ZM11.4929 24.6929C10.6425 25.5415 9.94663 26.9301 9.94663 27.7787C9.94663 29.6078 12.5398 32.4074 14.2337 32.4074C14.8909 32.4074 16.3042 31.5341 17.375 30.4657C18.8185 29.0254 19.1796 28.0811 18.7737 26.8044C17.6147 23.1616 14.0606 22.131 11.4929 24.6929ZM43.5454 24.9113C42.0609 26.1857 41.3837 27.6476 41.0953 30.2011C40.7458 33.293 40.97 34.0321 42.9106 36.1805C45.9476 39.5433 49.6494 40.0756 53.2183 37.6633C60.0181 33.067 57.0817 23.1501 48.9211 23.1501C46.5754 23.1501 44.9943 23.6677 43.5454 24.9113ZM50.9746 27.8057C53.0024 29.0005 53.0118 32.3295 51.5421 33.796C50.0661 35.2687 47.2511 34.8722 45.9421 33.0068C44.3928 30.8005 46.2847 28.5502 46.2847 28.5502C46.2847 28.5502 49.3776 26.8648 50.9746 27.8057Z" fill="#000000"/>
</g>
<path d="M56.9999 30.7155C56.9999 35.3755 53.2222 39.1532 48.5622 39.1532C43.9022 39.1532 40.1245 35.3755 40.1245 30.7155C40.1245 26.0555 43.9022 22.2778 48.5622 22.2778C53.2222 22.2778 56.9999 26.0555 56.9999 30.7155Z" fill="#000000"/>
<circle cx="48.5627" cy="30.7155" r="5.22333" fill="#29392f"/>
<circle cx="48.5631" cy="30.7154" r="2.81256" fill="#000000"/>
<path d="M21.2668 27.9027C21.2668 31.7376 18.158 34.8464 14.3231 34.8464C10.4882 34.8464 7.37939 31.7376 7.37939 27.9027C7.37939 24.0678 10.4882 20.959 14.3231 20.959C18.158 20.959 21.2668 24.0678 21.2668 27.9027Z" fill="#29392f"/>
<circle cx="14.3239" cy="27.9035" r="3.85762" fill="#000000"/>
<defs>
<filter id="filter0_d_2013_16" x="0.073575" y="0.963867" width="60.0125" height="44.3616" filterUnits="userSpaceOnUse" color-interpolation-filters="sRGB">
<feFlood flood-opacity="0" result="BackgroundImageFix"/>
<feColorMatrix in="SourceAlpha" type="matrix" values="0 0 0 0 0 0 0 0 0 0 0 0 0 0 0 0 0 0 127 0" result="hardAlpha"/>
<feOffset dy="3.08609"/>
<feGaussianBlur stdDeviation="1.54305"/>
<feComposite in2="hardAlpha" operator="out"/>
<feColorMatrix type="matrix" values="0 0 0 0 0 0 0 0 0 0 0 0 0 0 0 0 0 0 0.25 0"/>
<feBlend mode="normal" in2="BackgroundImageFix" result="effect1_dropShadow_2013_16"/>
<feBlend mode="normal" in="SourceGraphic" in2="effect1_dropShadow_2013_16" result="shape"/>
</filter>
</defs>
</svg>
